<?xml version="1.0" encoding="UTF-8"?>
<svg width="150px" height="21px" viewBox="0 0 150 21" version="1.1" xmlns="http://www.w3.org/2000/svg" xmlns:xlink="http://www.w3.org/1999/xlink">
    <!-- Generator: Sketch 63.1 (92452) - https://sketch.com -->
    <title>dell-technologies-logo copy</title>
    <desc>Created with Sketch.</desc>
    <g id="Symbols" stroke="none" stroke-width="1" fill="none" fill-rule="evenodd">
        <g id="-Header-/-Global-Header-/-Dark-Theme" transform="translate(-111.000000, -20.000000)" fill="#FFFFFF" fill-rule="nonzero">
            <g id="dell-technologies-logo-copy" transform="translate(111.000000, 20.000000)">
                <path d="M58.7862833,3.37399381 L58.7862833,2.7754386 L58.5264981,2.60206398 L48.1724974,2.60206398 L48,2.77337461 L48,3.37399381 L48.1724974,3.54530444 L52.5722203,3.54530444 L52.7447177,3.71661507 L52.7447177,16.228483 L52.9172151,16.3997936 L53.6944926,16.3997936 L53.86699,16.228483 L53.86699,3.80330237 L54.0394874,3.62992776 L58.5285764,3.62992776 L58.7862833,3.37399381 Z M61.1181157,6.3750258 C58.356079,6.3750258 56.7121579,8.34406605 56.7121579,11.1717234 L56.7121579,11.603096 C56.7121579,14.34613 58.0942154,16.7424149 61.2885348,16.7424149 C64.0505715,16.7424149 65.0855559,14.9426213 65.2580533,13.7434469 L65.0876342,13.5742002 L64.3082785,13.5742002 L64.1378594,13.7434469 C63.7055767,14.9426213 62.926221,15.7145511 61.3737444,15.7145511 C58.7842051,15.7145511 58.0069276,13.3141383 58.0069276,12.1149639 L58.1835816,11.9457172 L65.3432629,11.9457172 L65.5178386,11.7723426 L65.5178386,11.1717234 C65.5178386,8.34406605 63.965362,6.3750258 61.1181157,6.3750258 L61.1181157,6.3750258 Z M61.1181157,7.40288958 C62.3255975,7.40288958 63.1215795,7.89618163 63.6182889,8.55872033 C64.1149983,9.22332301 64.3082785,10.0592363 64.3082785,10.7444788 L64.1378594,10.9178535 L58.098372,10.9178535 L57.9237963,10.7444788 C57.9237963,10.0592363 58.1170766,9.22332301 58.6137859,8.55872033 C59.108417,7.89618163 59.9085556,7.40288958 61.1181157,7.40288958 L61.1181157,7.40288958 Z M67.5025979,11.5164087 C67.5025979,8.77131063 68.8825771,7.31620227 70.8694146,7.31620227 C72.8520956,7.31620227 73.6293731,8.51537668 73.88708,9.71661507 L74.0595774,9.8879257 L74.9241427,9.8879257 L75.0966401,9.71661507 C74.9241427,7.74551084 73.2843782,6.37296182 70.8673363,6.37296182 C68.277797,6.37296182 66.295116,8.00350877 66.295116,11.5164087 C66.295116,15.1159959 68.277797,16.6577915 70.8673363,16.6577915 C73.2843782,16.6577915 74.8368549,15.2873065 75.0966401,13.3141383 L74.9241427,13.1448916 L74.1468653,13.1448916 L73.9743679,13.3162023 C73.8018705,14.5133127 72.9393834,15.7145511 70.9546242,15.7145511 C68.9698649,15.7145511 67.5025979,14.344066 67.5025979,11.5164087 L67.5025979,11.5164087 Z M84.7606512,16.3151703 L84.7606512,10.3151703 C84.7606512,7.74551084 83.380672,6.37296182 81.1361275,6.37296182 C79.7561483,6.37296182 78.5486664,6.97151703 77.9438864,8.00350877 L77.771389,8.00350877 L77.771389,2.85799794 L77.5116037,2.6 L76.7364046,2.6 L76.5639072,2.77131063 L76.5639072,16.3110423 L76.7364046,16.4844169 L77.5116037,16.4844169 L77.6841011,16.3131063 L77.6841011,10.9137255 C77.6841011,8.68462332 78.7211638,7.31413829 80.8784205,7.31413829 C82.518185,7.31413829 83.4658815,8.34200206 83.4658815,10.3131063 L83.4658815,16.3131063 L83.6383789,16.4844169 L84.4156564,16.4844169 L84.7606512,16.3131063 L84.7606512,16.3151703 Z M94.9442328,16.3151703 L94.9442328,10.3151703 C94.9442328,7.74551084 93.5642536,6.37296182 91.319709,6.37296182 C89.9397298,6.37296182 88.7301697,6.97151703 88.127468,8.00350877 L87.9549706,8.00350877 L87.7824732,6.80227038 L87.6099758,6.63095975 L87.0051957,6.63095975 L86.8326983,6.80227038 L86.8326983,16.3151703 L87.0051957,16.4864809 L87.7824732,16.4864809 L87.9549706,16.3151703 L87.9549706,10.9137255 C87.9549706,8.68462332 88.989955,7.31413829 91.1472116,7.31413829 C92.7869761,7.31413829 93.736751,8.34200206 93.736751,10.3131063 L93.736751,16.3131063 L93.9092484,16.4844169 L94.7717354,16.4844169 L94.9442328,16.3131063 L94.9442328,16.3151703 Z M100.726013,6.45964912 C98.1385521,6.45964912 96.1537929,8.26150671 96.1537929,11.603096 C96.1537929,14.9467492 98.1385521,16.7424149 100.726013,16.7424149 C103.313474,16.7424149 105.30239,14.9467492 105.30239,11.603096 C105.30239,8.25944272 103.315552,6.45964912 100.726013,6.45964912 Z M100.726013,7.40288958 C101.719432,7.40288958 102.561136,7.81155831 103.153446,8.5380805 C103.747835,9.26873065 104.090752,10.3172343 104.090752,11.603096 C104.090752,12.8889577 103.747835,13.9374613 103.155525,14.6660475 C102.561136,15.3946336 101.719432,15.8012384 100.726013,15.8012384 C99.7832135,15.8179823 98.8861584,15.3984739 98.2985798,14.6660475 C97.7062695,13.9395253 97.363353,12.8889577 97.363353,11.603096 C97.363353,10.2738906 97.7062695,9.225387 98.2985798,8.50712074 C98.8929685,7.78885449 99.7325944,7.40288958 100.726013,7.40288958 Z M107.975061,16.3151703 L107.975061,2.7754386 L107.715275,2.60206398 L106.940076,2.60206398 L106.765501,2.77337461 L106.765501,16.3151703 L106.940076,16.4864809 L107.715275,16.4864809 L107.975061,16.3151703 Z M113.931417,6.45964912 C111.341877,6.45964912 109.357118,8.26150671 109.357118,11.603096 C109.357118,14.9467492 111.341877,16.7424149 113.929338,16.7424149 C116.516799,16.7424149 118.501559,14.9467492 118.501559,11.603096 C118.501559,8.25944272 116.518878,6.45964912 113.929338,6.45964912 L113.931417,6.45964912 Z M113.931417,7.40288958 C114.922757,7.40288958 115.760305,7.81155831 116.354693,8.5380805 C116.947004,9.26873065 117.296155,10.3172343 117.296155,11.603096 C117.296155,12.8889577 116.947004,13.9374613 116.354693,14.6660475 C115.769026,15.398586 114.873109,15.8182808 113.931417,15.8012384 C112.988617,15.8179823 112.091562,15.3984739 111.503983,14.6660475 C110.907516,13.9374613 110.558365,12.8889577 110.558365,11.603096 C110.558365,10.2738906 110.905438,9.225387 111.499827,8.50712074 C112.092137,7.78885449 112.933841,7.40288958 113.92726,7.40288958 L113.931417,7.40288958 Z M123.765847,6.3750258 C121.00381,6.3750258 119.536543,8.6 119.536543,11.5143447 C119.536543,14.5133127 120.918601,16.6577915 123.765847,16.6577915 C125.578109,16.6577915 126.529962,15.8858617 126.960166,15.0293086 L126.960166,15.1139319 C126.960166,17.6856553 126.357464,19.6567595 123.940423,19.6567595 C122.128161,19.6567595 121.523381,18.8889577 121.350883,17.8610939 L121.176308,17.6856553 L120.401108,17.6856553 L120.226533,17.8590299 C120.39903,19.4895769 121.610669,20.6 124.025632,20.6 C126.615171,20.6 128.254936,18.971517 128.254936,15.0293086 L128.254936,6.80227038 L128.08036,6.63302374 L127.477658,6.63302374 L127.305161,6.80227038 L127.130585,8.00350877 L126.960166,8.00350877 C126.529962,7.23157895 125.578109,6.37296182 123.765847,6.37296182 L123.765847,6.3750258 Z M123.765847,7.31826625 C124.759266,7.31826625 125.557326,7.65675955 126.108071,8.35438596 C126.658815,9.0499484 126.960166,10.100516 126.960166,11.5143447 C126.960166,12.9281734 126.658815,13.978741 126.108071,14.6743034 C125.557326,15.3719298 124.757187,15.7145511 123.765847,15.7145511 C122.774506,15.7145511 121.974368,15.3719298 121.423623,14.6743034 C120.872878,13.978741 120.575684,12.9281734 120.575684,11.5143447 C120.575684,10.1438596 120.872878,9.09329205 121.423623,8.38534572 C121.974368,7.67946336 122.774506,7.31826625 123.765847,7.31826625 Z M131.359889,4.83116615 L131.359889,3.63199174 L131.187392,3.46068111 L130.412193,3.46068111 L130.152407,3.63199174 L130.152407,4.83116615 L130.324905,5.00247678 L131.102182,5.00247678 L131.359889,4.83116615 Z M131.359889,16.3151703 L131.359889,6.80227038 L131.187392,6.63095975 L130.412193,6.63095975 L130.152407,6.80227038 L130.152407,16.3151703 L130.324905,16.4864809 L131.102182,16.4864809 L131.359889,16.3151703 Z M137.14167,6.3750258 C134.379633,6.3750258 132.741947,8.34406605 132.741947,11.1717234 L132.741947,11.60516 C132.741947,14.34613 134.121926,16.7444788 137.314167,16.7444788 C140.078282,16.7444788 141.113266,14.9426213 141.285764,13.7434469 L141.111188,13.5742002 L140.335989,13.5742002 L140.161413,13.7434469 C139.729131,14.9426213 138.95601,15.7145511 137.401455,15.7145511 C134.811915,15.7145511 134.034638,13.3141383 134.034638,12.1149639 L134.211292,11.9457172 L141.370973,11.9457172 L141.545549,11.7723426 L141.545549,11.1737874 C141.545549,8.42868937 139.903706,6.3750258 137.14167,6.3750258 L137.14167,6.3750258 Z M137.14167,7.40288958 C138.349151,7.40288958 139.14929,7.89618163 139.645999,8.55872033 C140.142709,9.22332301 140.335989,10.0592363 140.335989,10.7465428 L140.161413,10.9178535 L134.121926,10.9178535 L133.951507,10.7444788 C133.951507,10.0592363 134.144787,9.22332301 134.641496,8.55872033 C135.138206,7.89618163 135.934188,7.40288958 137.14167,7.40288958 L137.14167,7.40288958 Z M150,13.9147575 C150,12.1149639 148.965016,11.345098 146.980256,10.9157895 C144.995497,10.4864809 143.788015,10.3172343 143.788015,8.94468524 C143.788015,7.91682147 144.563214,7.31620227 146.03256,7.31620227 C147.842743,7.31620227 148.447523,8.08813209 148.447523,9.11599587 L148.620021,9.2873065 L149.397298,9.2873065 L149.569796,9.11599587 C149.569796,7.14489164 147.927953,6.37296182 145.945272,6.37296182 C143.700727,6.37296182 142.578455,7.57420021 142.578455,8.94468524 C142.578455,10.5731682 143.788015,11.345098 145.772775,11.6877193 C147.757534,12.1149639 148.792518,12.2862745 148.792518,13.9168215 C148.792518,14.9446852 148.189816,15.7145511 146.202979,15.7145511 C144.390717,15.7145511 143.615518,14.6866873 143.615518,13.4854489 L143.440942,13.3162023 L142.665743,13.3162023 L142.493246,13.4875129 C142.493246,15.2873065 143.873225,16.6577915 146.290267,16.6577915 C148.792518,16.7444788 150,15.5432405 150,13.9147575 L150,13.9147575 Z" id="Shape"></path>
                <path d="M48,12.8608121 L48,15.768364 L38.9366668,15.768364 L38.9366668,1.43163603 L42.2305171,1.43163603 L42.2305171,12.8586959 L48,12.8586959 L48,12.8608121 Z M20.5981031,0.6 L12.5669828,6.83621214 C11.7424713,3.71916413 9.06333319,1.43163603 5.76948293,1.43163603 L0,1.43163603 L0,15.768364 L5.76948293,15.768364 C9.06333319,15.768364 11.9480747,13.482952 12.5669828,10.365904 L20.5981031,16.6 L28.6334193,10.365904 L28.6334193,15.768364 L37.6967525,15.768364 L37.6967525,12.8586959 L31.7279601,12.8586959 L31.7279601,1.43163603 L28.4278159,1.43163603 L28.4278159,6.8319799 L20.8058044,13.0703082 L19.1588793,11.6144161 L22.8681323,8.70474805 L26.7829888,5.58770004 L24.5171555,3.72128025 L16.895144,9.74164793 L15.2482189,8.28787197 L22.8681323,2.46853591 L20.6022991,0.6 L20.5981031,0.6 Z M3.08824686,4.34130406 L5.55968355,4.34130406 C6.07369203,4.34130406 6.57930854,4.45769078 7.04296516,4.67141912 C7.50662179,4.88514747 7.93251453,5.20044968 8.29336947,5.58770004 C8.6542244,5.97918265 8.94794353,6.44261341 9.15354692,6.96952784 C9.35915031,7.49432615 9.47244198,8.08260812 9.47244198,8.70474805 C9.47244198,9.27610104 9.37173828,9.83264119 9.18291883,10.348975 C8.9920014,10.8653088 8.71506622,11.3393202 8.36470125,11.7434995 C8.01853228,12.1455628 7.60312951,12.4756778 7.12898291,12.7063351 C6.65693431,12.9369925 6.12614188,13.0660759 5.55968355,13.0660759 L3.08824686,13.0660759 L3.08824686,4.34130406 Z" id="Shape"></path>
            </g>
        </g>
    </g>
</svg>